Coordinates
version=1
nRows=16
nColumns=30
inDegrees=yes

Units are S.I. units (second, meters, Newtons, ...)
Angles are in degrees.

endheader
time	floatyaw	floatroll	floatpitch	floatx	floaty	floatz	pro_sup_l	deviation_l	flexion_l	cmc_flexion_l	cmc_abduction_l	mp_flexion_l	ip_flexion_l	2mcp_flexion_l	2mcp_abduction_l	2pm_flexion_l	2md_flexion_l	3mcp_flexion_l	3mcp_abduction_l	3pm_flexion_l	3md_flexion_l	4mcp_flexion_l	4mcp_abduction_l	4pm_flexion_l	4md_flexion_l	5mcp_flexion_l	5mcp_abduction_l	5pm_flexion_l	5md_flexion_l
-1.495000	-1.096539	-4.139632	93.798009	-0.009785	-0.265239	-0.003631	89.005620	1.029035	-2.037620	23.791800	2.832233	-17.914214	-28.428747	20.120325	5.737446	30.392578	20.306618	9.889137	4.535774	33.482493	21.708796	-1.210061	-3.989521	50.581306	33.064642	-21.028262	-7.572656	60.673281	50.137439
-1.485000	-1.096539	-4.139632	93.798009	-0.009789	-0.265254	-0.003641	89.009554	1.033848	-2.043900	23.798946	2.825512	-17.908444	-28.438531	20.103333	5.747071	30.386997	20.326058	9.888157	4.538439	33.472595	21.709603	-1.211135	-3.976402	50.567379	33.065983	-21.029134	-7.588180	60.672138	50.086877
-1.475000	-1.096539	-4.139632	93.798009	-0.009788	-0.265268	-0.003648	89.009813	1.033774	-2.051267	23.812513	2.839112	-17.905700	-28.470410	20.092862	5.762995	30.383394	20.345205	9.895222	4.538372	33.465647	21.715673	-1.196568	-3.964998	50.536889	33.084287	-21.022872	-7.604380	60.651156	50.057233
-1.465000	-1.096539	-4.139632	93.798009	-0.009782	-0.265272	-0.003655	89.005957	1.030150	-2.055355	23.822550	2.866626	-17.900985	-28.504655	20.087811	5.780971	30.380232	20.361352	9.904366	4.533267	33.463749	21.726704	-1.173741	-3.958804	50.498550	33.115577	-21.014378	-7.615920	60.617997	50.048553
-1.455000	-1.096539	-4.139632	93.798009	-0.009775	-0.265264	-0.003660	89.000990	1.025038	-2.052627	23.820692	2.892123	-17.890404	-28.519090	20.084785	5.795752	30.373954	20.371583	9.909639	4.522420	33.464273	21.738133	-1.151419	-3.958511	50.460188	33.148302	-21.009693	-7.618119	60.577136	50.053202
-1.445000	-1.096539	-4.139632	93.798009	-0.009776	-0.265248	-0.003658	88.999126	1.019910	-2.042328	23.806731	2.898069	-17.874987	-28.503368	20.081331	5.803564	30.359936	20.372919	9.908905	4.507234	33.460673	21.742774	-1.134949	-3.961595	50.424489	33.168502	-21.011352	-7.608336	60.528272	50.060037
-1.435000	-1.096539	-4.139632	93.798009	-0.009790	-0.265228	-0.003643	89.002643	1.014674	-2.026594	23.788385	2.874821	-17.860524	-28.463962	20.078276	5.803622	30.334088	20.362596	9.904532	4.490735	33.446372	21.734102	-1.124240	-3.963895	50.388612	33.165981	-21.016377	-7.586640	60.467021	50.059991
-1.425000	-1.096539	-4.139632	93.798009	-0.009818	-0.265210	-0.003610	89.009896	1.007747	-2.008971	23.774939	2.826444	-17.853648	-28.417852	20.079683	5.797953	30.294688	20.338986	9.901014	4.476349	33.419158	21.709524	-1.115475	-3.962220	50.347987	33.138755	-21.018241	-7.555946	60.388216	50.050149
-1.415000	-1.096539	-4.139632	93.798009	-0.009857	-0.265198	-0.003562	89.015944	0.997264	-1.992727	23.770454	2.769359	-17.857311	-28.381339	20.090484	5.789851	30.244075	20.303066	9.901730	4.466599	33.383287	21.671941	-1.104782	-3.956209	50.301662	33.093983	-21.011358	-7.521732	60.290808	50.034547
-1.405000	-1.096539	-4.139632	93.798009	-0.009897	-0.265192	-0.003503	89.015564	0.982619	-1.980160	23.771964	2.724191	-17.869079	-28.362428	20.113351	5.781990	30.189127	20.259468	9.907281	4.462333	33.347762	21.628782	-1.091046	-3.948180	50.255170	33.045007	-20.995086	-7.491171	60.181516	50.021604
-1.395000	-1.096539	-4.139632	93.798009	-0.009930	-0.265191	-0.003441	89.006809	0.965287	-1.972972	23.773498	2.705140	-17.883241	-28.360783	20.146732	5.775155	30.139366	20.215975	9.916264	4.462754	33.321480	21.589058	-1.076222	-3.941175	50.218435	33.005879	-20.974788	-7.471632	60.074043	50.019654
-1.385000	-1.096539	-4.139632	93.798009	-0.009951	-0.265199	-0.003385	88.992858	0.948314	-1.972790	23.772345	2.712820	-17.894926	-28.373355	20.185037	5.768178	30.103146	20.181245	9.927326	4.466151	33.308057	21.560019	-1.063351	-3.936692	50.199798	32.985884	-20.959306	-7.468811	59.983442	50.032815
-1.375000	-1.096539	-4.139632	93.798009	-0.009963	-0.265218	-0.003337	88.981011	0.934854	-1.980986	23.772657	2.734609	-17.903222	-28.400194	20.220646	5.759071	30.084208	20.161695	9.940559	4.470925	33.303803	21.544982	-1.053805	-3.933780	50.200149	32.986568	-20.956251	-7.484945	59.919144	50.059328
-1.365000	-1.096539	-4.139632	93.798009	-0.009969	-0.265249	-0.003295	88.979193	0.926693	-1.997727	23.783280	2.752235	-17.911058	-28.445224	20.246628	5.746714	30.080768	20.159063	9.957094	4.476303	33.300398	21.543096	-1.045765	-3.930037	50.211376	33.002479	-20.967971	-7.517646	59.881417	50.093178
-1.355000	-1.096539	-4.139632	93.798009	-0.009977	-0.265292	-0.003258	88.991698	0.923655	-2.021015	23.810693	2.752084	-17.921881	-28.510739	20.259062	5.732052	30.087280	20.169968	9.977391	4.482295	33.290563	21.550747	-1.035356	-3.923646	50.220682	33.024957	-20.990863	-7.559953	59.863514	50.127926
-1.345000	-1.096539	-4.139632	93.798009	-0.009988	-0.265338	-0.003225	89.016522	0.924160	-2.046584	23.851985	2.732198	-17.935581	-28.589978	20.258246	5.718022	30.097293	20.187798	9.999851	4.489001	33.272863	21.563604	-1.019824	-3.914801	50.218298	33.046766	-21.018351	-7.602039	59.857732	50.160242
